<?xml version="1.0" encoding="utf-8"?>
<!-- Generator: Adobe Illustrator 21.0.2, SVG Export Plug-In . SVG Version: 6.00 Build 0)  -->
<svg version="1.1" id="Layer_1" xmlns="http://www.w3.org/2000/svg" xmlns:xlink="http://www.w3.org/1999/xlink" x="0px" y="0px"
	 viewBox="0 0 656 269.3" style="enable-background:new 0 0 656 269.3;" xml:space="preserve">
<style type="text/css">
	.st0{fill:#070707;}
	.st1{fill:url(#SVGID_1_);}
	.st2{fill:#EF6B4F;}
	.st3{fill:#F9F4B3;}
</style>
<title>textbook-valet-logo</title>
<path class="st0" d="M273.5,261.9h-12.6l-20.4-99.9h15.2l11.3,69.7h0.3l11.5-69.8H294L273.5,261.9z"/>
<path class="st0" d="M314.4,161.9h11.9l22.3,99.9h-14.3l-4.2-21.5h-19.5l-4.2,21.5H292L314.4,161.9z M320.4,190.7h-0.3l-7,36.2h14.3
	L320.4,190.7z"/>
<path class="st0" d="M356.8,161.9h14.3v85.6h28.4v14.3h-42.7V161.9z"/>
<path class="st0" d="M409.8,161.9h42.7v13.5h-28.3v29.3h24.7v13.5h-24.7v29.3h28.4v14.3h-42.7V161.9z"/>
<path class="st0" d="M472.3,175.4h-16.6v-13.5h47.4v13.5h-16.6v86.4h-14.3V175.4z"/>
<path class="st0" d="M175.7,39.1h-16.6V25.6h47.4v13.5H190v86.4h-14.3V39.1z"/>
<path class="st0" d="M214,25.6h42.7v13.5h-28.4v29.3H253v13.5h-24.7v29.3h28.3v14.3H214V25.6z"/>
<path class="st0" d="M280.2,73.2l-18.7-47.6h15.2l10.8,29.6l11-29.6h15.2l-19.1,47.6l20.6,52.3H300l-12.5-33.7l-12.4,33.7H260
	L280.2,73.2z"/>
<path class="st0" d="M332.2,39.1h-16.6V25.6H363v13.5h-16.5v86.4h-14.3V39.1z"/>
<path class="st0" d="M370.5,25.6h20.9c18.5,0,25.4,12.2,25.4,25.3v3.7c0,10.7-3.5,14.6-9.8,18.5c6.7,3.2,9.8,9.3,9.8,19.7v5.6
	c0,17.4-8.3,27.2-26.8,27.2h-19.5V25.6z M384.8,66.6h6.5c9.5,0,12.1-4.9,12.1-14c0-8.8-3.2-13.5-12.6-13.5h-5.9L384.8,66.6z
	 M384.8,111.2h6.2c11.5,0,12.4-7,12.4-16.8s-1.8-15.2-12.2-15.2h-6.3L384.8,111.2z"/>
<path class="st0" d="M430.5,49.2c0-16.3,12.4-24.4,24-24.4s24,8.1,24,24.4V102c0,16.3-12.4,24.4-24,24.4s-24-8.1-24-24.4V49.2z
	 M444.9,102c0,6.9,4.5,10.1,9.7,10.1s9.7-3.2,9.7-10.1V49.2c0-6.9-4.5-10.1-9.7-10.1s-9.7,3.2-9.7,10.1V102z"/>
<path class="st0" d="M491.5,49.2c0-16.3,12.4-24.4,24-24.4s24,8.1,24,24.4V102c0,16.3-12.3,24.4-24,24.4s-24-8.1-24-24.4L491.5,49.2
	z M505.8,102c0,6.9,4.5,10.1,9.7,10.1c5.2,0,9.7-3.2,9.7-10.1V49.2c0-6.9-4.5-10.1-9.7-10.1s-9.7,3.2-9.7,10.1L505.8,102z"/>
<path class="st0" d="M553.2,25.6h14.3v45.6h0.3l20.9-45.6H603l-19.5,40l23.2,59.9h-15.1l-16.3-44.4l-7.7,14.5v29.9h-14.3V25.6z"/>
<linearGradient id="SVGID_1_" gradientUnits="userSpaceOnUse" x1="6.34" y1="107.12" x2="150.67" y2="107.12" gradientTransform="matrix(1 0 0 -1 0 272)">
	<stop  offset="0" style="stop-color:#FFFFFF;stop-opacity:0"/>
	<stop  offset="1" style="stop-color:#EF6B4F;stop-opacity:0.8"/>
</linearGradient>
<path class="st1" d="M150.7,236.9l-14.5-80.3c-1.5-0.7-23.9-0.3-67.3-14.1C28,129.6,6.3,92.9,6.3,92.9c4.1,22.3,12.7,43.5,25.4,62.2
	c17.6,25.6,49.7,49.3,70.4,60.8C134.2,233.6,150.7,236.9,150.7,236.9z"/>
<path class="st2" d="M149.4,153.9l59.5,13.9l16.7,97.4l-65.4-20.6c0,0-2.9-0.7-3.6-6c-0.9-6.8-13.7-83-13.7-83l18.1-10.5l62.3,14.9
	l15.7,96.2l-1.5,0.9l-15.7-95.3l-61.4-14.3L149.4,153.9z"/>
<polygon class="st3" points="225.6,265.2 237.6,257 221.8,161.8 160.5,147.5 149.4,153.9 208.9,167.8 "/>
<path class="st3" d="M104.7,186.7l2.4,1.4c1.6,0.9,3.8,2.1,6.5,3.4c1.4,0.6,2.9,1.3,4.4,1.9c1.6,0.6,3.3,1.1,5,1.5
	c1.8,0.4,3.6,0.5,5.4,0.4c2-0.1,3.9-0.2,5.8-0.5c3.9-0.5,7.9-1.3,11.7-1.9c1.9-0.3,3.7-0.6,5.5-0.8c1.7-0.2,3.4-0.4,5.1-0.4
	c1.6-0.1,3.2,0.3,4.7,1c0.3,0.2,0.5,0.4,0.8,0.7c0.6,0.6,1.1,1.4,1.4,2.2c0.3,0.7,0.4,1.4,0.4,2.2c0,0.3,0,0.5-0.1,0.8
	c-0.1-0.2-0.2-0.5-0.3-0.7c-0.3-0.6-0.6-1.2-1-1.7c-0.3-0.3-0.6-0.7-1-0.9c-0.2-0.1-0.4-0.3-0.6-0.4c-0.1-0.1-0.6-0.3-0.7-0.4
	c-1.1-0.3-2.3-0.4-3.5-0.1c-1.6,0.2-3.1,0.5-4.7,0.9l-5.3,1.2c-3.9,1-7.9,1.7-11.9,2.3c-2.1,0.3-4.2,0.4-6.3,0.4
	c-2.1,0-4.2-0.3-6.3-0.9c-1.9-0.5-3.7-1.3-5.4-2.2c-1.5-0.8-3-1.6-4.4-2.6c-2.1-1.4-4.1-3-5.9-4.7
	C105.4,187.5,104.7,186.7,104.7,186.7z"/>
<path class="st3" d="M95.3,164.4c0,0,0.6,1.3,1.7,3.5c0.6,1.1,1.3,2.4,2.2,3.8c1,1.6,2.2,3.1,3.4,4.5c1.4,1.6,3.1,3,4.9,4.1l0.4,0.2
	l0.1,0.1h0.1l0.2,0.1l0.8,0.4c0.6,0.3,1.1,0.6,1.7,0.8c1.1,0.6,2.2,1,3.4,1.6c2.5,1,5,1.8,7.5,2.4c2.6,0.7,5.3,1.1,8,1.4
	c2.7,0.3,5.4,0.4,8.1,0.2c2.6-0.1,5.3-0.4,7.9-0.9c2.6-0.4,4.9-1.1,7.5-1.6c2.5-0.5,5-0.3,7.4,0.5c1.1,0.4,2.1,1,2.9,1.8
	c0.7,0.7,1.4,1.5,1.8,2.5c0.4,0.8,0.6,1.6,0.8,2.5c0.1,0.4,0.1,0.8,0.1,1.1c0,0.4-0.1,0.7-0.1,1c-0.2,2.5-0.4,3.9-0.4,3.9
	s-0.2-1.4-0.4-3.9c0-0.3-0.1-0.7-0.1-0.9c-0.1-0.3-0.1-0.7-0.3-1c-0.2-0.7-0.6-1.4-1-2c-1-1.4-2.4-2.4-4.1-2.8
	c-2.1-0.4-4.2-0.3-6.2,0.2c-2.1,0.5-4.7,1.5-7.4,2.1l-2,0.4l-2.1,0.3c-1.4,0.3-2.8,0.4-4.2,0.5c-2.9,0.2-5.8,0.1-8.7-0.1
	c-2.9-0.3-5.8-0.8-8.6-1.6c-2.7-0.8-5.4-1.7-7.9-2.9c-1.2-0.6-2.4-1.2-3.6-1.9c-0.6-0.3-1.1-0.7-1.7-1l-0.8-0.5l-0.2-0.1l-0.1-0.1
	l-0.1-0.1l-0.4-0.3c-2-1.4-3.7-3.2-5.1-5.2c-1.1-1.6-2.1-3.4-2.9-5.2c-0.6-1.4-1.2-2.8-1.6-4.2C95.8,166.8,95.5,165.6,95.3,164.4z"
	/>
<path class="st3" d="M167.1,197.8c0.3-1.5,0.4-3,0.4-4.6c0-1.7-0.2-3.4-0.5-5.1c-0.3-2-1.2-3.8-2.7-5.1c-1.8-1.5-4.1-2.4-6.4-2.5
	c-1.3-0.1-2.7,0-4,0.1c-1.4,0.2-2.9,0.5-4.3,0.9l-2.3,0.6c-0.8,0.2-1.6,0.4-2.4,0.6s-1.7,0.4-2.5,0.5s-1.7,0.3-2.6,0.4
	c-7.1,1-14.4-0.1-20.8-3.2c-1.6-0.7-3.1-1.5-4.5-2.3l-0.6-0.3l-0.2-0.1l-0.1-0.1l-0.3-0.1c-0.4-0.2-0.7-0.4-1.1-0.6
	c-0.8-0.5-1.5-1-2.1-1.5c-2.5-2-4.8-4.2-6.8-6.6c-1.8-2.1-3.5-4.3-5.1-6.6c-1.5-2.1-2.7-4.1-3.8-5.9s-1.9-3.4-2.6-4.7
	c-1.4-2.6-2-4.2-2-4.2s1,1.4,2.8,3.7c0.9,1.2,2,2.6,3.3,4.1s2.8,3.3,4.4,5.2s3.5,3.8,5.6,5.8c2.1,2,4.3,3.9,6.8,5.5l0.9,0.6l0.9,0.5
	c0.3,0.2,0.7,0.4,1,0.6l0.3,0.1l0.1,0.1l0,0l0,0h0.1l0.5,0.3c1.4,0.7,2.9,1.3,4.4,2c5.8,2.5,12.1,3.5,18.4,2.8
	c0.8-0.1,1.6-0.1,2.4-0.3s1.6-0.2,2.3-0.3c1.5-0.2,3.1-0.6,4.6-0.9c3.2-0.8,6.5-1,9.8-0.6c3.1,0.4,6,1.8,8.2,4.1
	c1.8,1.9,2.9,4.5,3,7.2c0,1.8-0.2,3.7-0.7,5.5c-0.3,1.1-0.6,2.3-1.1,3.3C167.6,197.1,167.4,197.4,167.1,197.8z"/>
<path class="st3" d="M105.7,194.2l1.7,1.1c1.1,0.7,2.6,1.6,4.5,2.6c0.9,0.5,2,1,3,1.5l0.8,0.4l0.2,0.1l0.2,0.1l0.5,0.2
	c0.6,0.2,1.2,0.4,1.8,0.6c2.6,0.8,5.2,1.2,7.9,1.3c2.7,0.1,5.4,0,8.1-0.3c1.3-0.1,2.6-0.3,3.8-0.5s2.4-0.4,3.4-0.6
	c0.5-0.1,1-0.2,1.5-0.3l1.4-0.4l2.2-0.6c1.2-0.3,2-0.5,2-0.5s-0.6,0.4-1.8,1l-2,1.1l-1.3,0.6c-0.4,0.2-1,0.5-1.4,0.7
	c-1,0.4-2.1,0.9-3.4,1.3s-2.5,0.8-3.9,1.1c-2.9,0.6-5.8,0.9-8.8,0.8c-3-0.1-6-0.7-8.8-1.8c-0.7-0.3-1.4-0.6-1.9-0.9l-0.4-0.2
	l-0.2-0.1l-0.2-0.1l-0.8-0.5c-1-0.7-2-1.4-2.9-2.2c-1.4-1.1-2.6-2.4-3.8-3.8C106.5,195.3,106.1,194.8,105.7,194.2z"/>
<path d="M637.1,28.2c-1.4,3.4-4.1,6.1-7.5,7.5c-3.5,1.5-7.5,1.5-11,0c-3.4-1.4-6.1-4.1-7.5-7.5c-1.5-3.5-1.5-7.5,0-11
	c1.4-3.4,4.1-6.1,7.5-7.5c3.5-1.5,7.5-1.5,11,0c3.4,1.4,6.1,4.1,7.5,7.5C638.6,20.7,638.6,24.7,637.1,28.2L637.1,28.2z M634,18.3
	c-0.5-1.3-1.3-2.5-2.3-3.5c-2-2-4.8-3.2-7.7-3.1c-1.5,0-2.9,0.3-4.3,0.8c-1.3,0.5-2.4,1.3-3.4,2.3c-1,1-1.8,2.2-2.3,3.5
	c-1.1,2.8-1.1,5.9,0,8.7c0.5,1.3,1.3,2.5,2.3,3.5c1,1,2.1,1.8,3.4,2.3c2.7,1.1,5.8,1.1,8.5,0c1.3-0.5,2.5-1.3,3.5-2.3
	c1-1,1.8-2.2,2.3-3.5C635.1,24.3,635.1,21.1,634,18.3z M626.5,30.2l-2.7-5.8h-1.6v5.8h-3.4V15.1h6.2c0.7,0,1.4,0.1,2.1,0.4
	c0.6,0.2,1.1,0.6,1.6,1c0.4,0.4,0.8,0.9,1,1.5c0.2,0.6,0.4,1.2,0.3,1.8c0,0.9-0.3,1.8-0.8,2.6c-0.5,0.6-1.2,1.1-1.9,1.4l3.2,6.3
	L626.5,30.2z M626.1,18.5c-0.4-0.4-0.9-0.6-1.5-0.6h-2.3v3.9h2.3c0.6,0,1.1-0.2,1.5-0.6C626.8,20.5,626.8,19.3,626.1,18.5z"/>
</svg>
