<?xml version="1.0" encoding="UTF-8"?>
<svg width="20px" height="18px" viewBox="0 0 20 18" version="1.1" xmlns="http://www.w3.org/2000/svg" xmlns:xlink="http://www.w3.org/1999/xlink">
    <!-- Generator: Sketch 46.1 (44463) - http://www.bohemiancoding.com/sketch -->
    <title>pt-icon-bank-account</title>
    <desc>Created with Sketch.</desc>
    <defs></defs>
    <g id="rental-plan" stroke="none" stroke-width="1" fill="none" fill-rule="evenodd">
        <g id="rental-landing-page" transform="translate(-853.000000, -893.000000)" fill-rule="nonzero" fill="#F76056">
            <g id="pt-icon-bank-account" transform="translate(853.000000, 892.000000)">
                <path d="M19.2,8.02 L18.42,7.84 C18.03,6.4 17.2,5.08 16.08,4 L16.58,1.72 C16.69,1.3 16.36,0.94 15.97,1 C14.91,1.12 13.97,1.54 13.3,2.26 C12.24,1.84 10.96,1.6 9.74,1.6 C6.62,1.6 3.95,3.1 2.34,5.32 C2.11,5.27 1.89,5.21 1.67,5.21 C0.72,5.21 0,5.98 0,7 C0,7.72 0.39,8.32 0.95,8.62 C0.89,9.04 0.83,9.52 0.83,10 C0.83,12.16 1.72,14.08 3.11,15.58 L2.78,17.62 C2.67,18.34 3.23,19 3.9,19 L4.62,19 C5.18,19 5.62,18.58 5.73,17.98 L5.79,17.5 C6.96,18.04 8.29,18.4 9.74,18.4 C11.13,18.4 12.52,18.1 13.69,17.5 L13.75,17.98 C13.86,18.58 14.31,19 14.86,19 L15.58,19 C16.25,19 16.8,18.34 16.69,17.62 L16.36,15.64 C17.14,14.86 17.7,13.9 18.09,12.88 L19.09,12.64 C19.59,12.52 19.98,12.04 19.98,11.44 L19.98,9.22 C20.09,8.62 19.7,8.14 19.2,8.02 Z M15,10 C14.4,10 14,9.3 14,8.5 C14,7.7 14.4,7 15,7 C15.6,7 16,7.7 16,8.5 C16,9.3 15.6,10 15,10 Z M7.55,5.83 C7.1,6.14 6.47,6.01 6.17,5.55 C5.86,5.1 5.99,4.47 6.45,4.17 C8.79,2.61 11.22,2.61 13.56,4.17 C14.02,4.48 14.14,5.1 13.84,5.56 C13.53,6.02 12.91,6.14 12.45,5.84 C10.78,4.72 9.22,4.72 7.55,5.83 Z" id="Shape_5_"></path>
            </g>
        </g>
    </g>
</svg>