<?xml version="1.0" encoding="UTF-8"?>
<svg width="20px" height="20px" viewBox="0 0 20 20" version="1.1" xmlns="http://www.w3.org/2000/svg" xmlns:xlink="http://www.w3.org/1999/xlink">
    <!-- Generator: Sketch 46.1 (44463) - http://www.bohemiancoding.com/sketch -->
    <title>pt-icon-endorsed</title>
    <desc>Created with Sketch.</desc>
    <defs></defs>
    <g id="rental-plan" stroke="none" stroke-width="1" fill="none" fill-rule="evenodd">
        <g id="rental-landing-page" transform="translate(-78.000000, -1181.000000)" fill-rule="nonzero" fill="#F76056">
            <g id="pt-icon-endorsed" transform="translate(78.000000, 1180.000000)">
                <path d="M19.83,10.38 L18.81,8.6 L18.81,6.62 C18.81,6.17 18.58,5.77 18.2,5.54 L16.49,4.54 L15.47,2.78 C15.24,2.4 14.84,2.17 14.39,2.17 L12.36,2.17 L10.62,1.17 C10.24,0.94 9.75,0.94 9.37,1.17 L7.63,2.17 L5.65,2.17 C5.21,2.17 4.8,2.4 4.57,2.78 L3.58,4.5 L1.78,5.54 C1.4,5.78 1.16,6.18 1.16,6.62 L1.16,8.68 L0.17,10.4 C0.06,10.59 0,10.8 0,11.01 C0,11.22 0.06,11.43 0.17,11.62 L1.16,13.34 L1.16,15.4 C1.16,15.85 1.39,16.25 1.77,16.48 L3.55,17.5 L4.54,19.22 C4.77,19.6 5.17,19.83 5.62,19.83 L7.61,19.83 L9.35,20.83 C9.54,20.94 9.76,21 9.97,21 C10.18,21 10.39,20.94 10.58,20.83 L12.32,19.83 L14.35,19.83 C14.79,19.83 15.2,19.6 15.43,19.22 L16.45,17.46 L18.16,16.46 C18.54,16.23 18.77,15.82 18.77,15.38 L18.77,13.41 L19.79,11.63 C20.06,11.25 20.06,10.78 19.83,10.38 Z M14.75,9.67 L9.74,14.68 C9.56,14.86 9.31,14.97 9.03,14.97 C8.75,14.97 8.5,14.86 8.32,14.68 L5.31,11.67 C5.13,11.49 5.02,11.24 5.02,10.96 C5.02,10.41 5.47,9.96 6.02,9.96 C6.3,9.96 6.55,10.07 6.73,10.25 L9.03,12.55 L13.34,8.25 C13.52,8.07 13.77,7.96 14.05,7.96 C14.6,7.96 15.05,8.41 15.05,8.96 C15.05,9.24 14.93,9.49 14.75,9.67 Z" id="Shape"></path>
            </g>
        </g>
    </g>
</svg>