<?xml version="1.0" encoding="UTF-8"?>
<svg width="15px" height="20px" viewBox="0 0 15 20" version="1.1" xmlns="http://www.w3.org/2000/svg" xmlns:xlink="http://www.w3.org/1999/xlink">
    <!-- Generator: Sketch 46.1 (44463) - http://www.bohemiancoding.com/sketch -->
    <title>pt-icon-book</title>
    <desc>Created with Sketch.</desc>
    <defs></defs>
    <g id="rental-plan" stroke="none" stroke-width="1" fill="none" fill-rule="evenodd">
        <g id="rental-landing-page" transform="translate(-73.000000, -891.000000)" fill-rule="nonzero" fill="#F76056">
            <g id="pt-icon-book" transform="translate(73.000000, 891.000000)">
                <path d="M0,1 L0,19 C0,19.55 0.45,20 1,20 L3,20 L3,0 L1,0 C0.45,0 0,0.45 0,1 Z M14,0 L12,0 L12,8 L10,6 L8,8 L8,0 L4,0 L4,20 L14,20 C14.55,20 15,19.55 15,19 L15,1 C15,0.45 14.55,0 14,0 Z" id="Shape"></path>
            </g>
        </g>
    </g>
</svg>